<?xml version="1.0" encoding="UTF-8"?>
<svg width="14px" height="23px" viewBox="0 0 14 23" version="1.1" xmlns="http://www.w3.org/2000/svg" xmlns:xlink="http://www.w3.org/1999/xlink">
    <!-- Generator: Sketch 44.1 (41455) - http://www.bohemiancoding.com/sketch -->
    <title>noun_114615_cc</title>
    <desc>Created with Sketch.</desc>
    <defs></defs>
    <g id="Page-1" stroke="none" stroke-width="1" fill="none" fill-rule="evenodd">
        <g id="Artboard-Copy-5" transform="translate(-30.000000, -20.000000)" fill-rule="nonzero" fill="#FFFFFF">
            <g id="noun_114615_cc" transform="translate(37.000000, 31.500000) scale(-1, 1) translate(-37.000000, -31.500000) translate(30.000000, 20.000000)">
                <path d="M13.1098947,12.7695 C12.5132982,12.52975 11.8383509,12.82825 11.602807,13.43575 C11.2665614,14.304 10.4587368,14.86525 9.54529825,14.86525 C8.32336842,14.86525 7.32912281,13.85325 7.32912281,12.6095 C7.32912281,11.36575 8.32336842,10.35375 9.54529825,10.35375 C10.4589825,10.35375 11.2665614,10.91475 11.602807,11.78325 C11.8381053,12.39075 12.512807,12.68925 13.1098947,12.44975 C13.7067368,12.21025 14,11.5235 13.7647018,10.91575 C13.076,9.1375 11.4198246,7.9885 9.54529825,7.9885 C8.71070175,7.9885 7.92866667,8.22 7.25592982,8.6215 L9.39596491,3.11625 C9.632,2.509 9.3397193,1.82175 8.74312281,1.5815 C8.1462807,1.34125 7.47157895,1.63875 7.23529825,2.246 L4.96189474,8.095 L5.79845614,1.5605 C5.88147368,0.91275 5.43273684,0.3195 4.79635088,0.235 C4.15996491,0.15025 3.57687719,0.60725 3.49410526,1.255 L2.70445614,7.423 L2.69487719,7.405 L2.45368421,4.639 C2.39694737,3.9885 1.83154386,3.509 1.19368421,3.56575 C0.554596491,3.6235 0.0822807018,4.19775 0.139017544,4.84825 L1.03354386,15.10575 L2.04105263,22.775 L9.13070175,22.775 L7.94585965,16.93325 C8.4437193,17.12475 8.98235088,17.23025 9.54529825,17.23025 C11.4198246,17.23025 13.076,16.08125 13.7647018,14.30325 C14,13.6955 13.7069825,13.009 13.1098947,12.7695 Z" id="Shape"></path>
            </g>
        </g>
    </g>
</svg>